/* XPM */
static char * bottom_active_xpm[] = {
"10 6 4 1",
" 	c None",
".	c #030303",
"+	c #7C7C7C",
"@	c #040404",
"..........",
"++++++++++",
"@@@@@@@@@@",
"@@@@@@@@@@",
"++++++++++",
".........."};
