/* XPM */
static char * bottom_right_inactive_xpm[] = {
"6 6 4 1",
" 	c #030303",
".	c #424242",
"+	c #040404",
"@	c #2E2E2E",
" .++. ",
".@++. ",
"++++. ",
"++++. ",
"..... ",
"      "};
