/* XPM */
static char * close_pressed_xpm[] = {
"41 28 201 2",
"  	c None",
". 	c #5D6073",
"+ 	c #5A5F72",
"@ 	c #5C5F72",
"# 	c #5A6070",
"$ 	c #595E71",
"% 	c #5A5F73",
"& 	c #515F6C",
"* 	c #586474",
"= 	c #4A5569",
"- 	c #485371",
"; 	c #6D6B6C",
"> 	c #6C6C6C",
", 	c #6D6D6B",
"' 	c #6C6C6A",
") 	c #716C69",
"! 	c #696363",
"~ 	c #6C6764",
"{ 	c #656158",
"] 	c #606060",
"^ 	c #636363",
"/ 	c #5D5D5D",
"( 	c #616161",
"_ 	c #626262",
": 	c #5F5F5F",
"< 	c #656565",
"[ 	c #5E5E5E",
"} 	c #5B5B5B",
"| 	c #4F4F4F",
"1 	c #505050",
"2 	c #515151",
"3 	c #535353",
"4 	c #4E4E4E",
"5 	c #525252",
"6 	c #080808",
"7 	c #0B0B0B",
"8 	c #070707",
"9 	c #0A0A0A",
"0 	c #060606",
"a 	c #070908",
"b 	c #0C0C0C",
"c 	c #050505",
"d 	c #191919",
"e 	c #760000",
"f 	c #7B0000",
"g 	c #740000",
"h 	c #7F0000",
"i 	c #790000",
"j 	c #7C0000",
"k 	c #770000",
"l 	c #7D0000",
"m 	c #780000",
"n 	c #7A0000",
"o 	c #7A7A7A",
"p 	c #1C1C1C",
"q 	c #750000",
"r 	c #710000",
"s 	c #730000",
"t 	c #980000",
"u 	c #AB0000",
"v 	c #960000",
"w 	c #6E0000",
"x 	c #700000",
"y 	c #720000",
"z 	c #777978",
"A 	c #1B1D1C",
"B 	c #660000",
"C 	c #670000",
"D 	c #6B0000",
"E 	c #690000",
"F 	c #6A0000",
"G 	c #680000",
"H 	c #990000",
"I 	c #D00000",
"J 	c #DE0000",
"K 	c #DA0000",
"L 	c #DC0000",
"M 	c #CF0000",
"N 	c #910000",
"O 	c #6B6D6C",
"P 	c #171918",
"Q 	c #620000",
"R 	c #5E0000",
"S 	c #600000",
"T 	c #5F0000",
"U 	c #610000",
"V 	c #D70000",
"W 	c #E20000",
"X 	c #B20000",
"Y 	c #920000",
"Z 	c #930000",
"` 	c #D60000",
" .	c #940000",
"..	c #5C0000",
"+.	c #5F6160",
"@.	c #550000",
"#.	c #520000",
"$.	c #530000",
"%.	c #540000",
"&.	c #510000",
"*.	c #630000",
"=.	c #D10000",
"-.	c #E10000",
";.	c #820000",
">.	c #570000",
",.	c #850000",
"'.	c #DF0000",
").	c #545655",
"!.	c #1E1E1E",
"~.	c #440000",
"{.	c #4B0000",
"].	c #480000",
"^.	c #490000",
"/.	c #460000",
"(.	c #870000",
"_.	c #A90000",
":.	c #470000",
"<.	c #4A0000",
"[.	c #AA0000",
"}.	c #860000",
"|.	c #4C0000",
"1.	c #474747",
"2.	c #181818",
"3.	c #040000",
"4.	c #020000",
"5.	c #000000",
"6.	c #010000",
"7.	c #430000",
"8.	c #DD0000",
"9.	c #1A1A1A",
"0.	c #D90000",
"a.	c #030000",
"b.	c #DB0000",
"c.	c #8B0000",
"d.	c #8C0000",
"e.	c #0F0000",
"f.	c #C60000",
"g.	c #C70000",
"h.	c #100000",
"i.	c #010101",
"j.	c #1B1B1B",
"k.	c #3C0000",
"l.	c #D80000",
"m.	c #4D0000",
"n.	c #171717",
"o.	c #3F0000",
"p.	c #CA0000",
"q.	c #400000",
"r.	c #1D1D1D",
"s.	c #080000",
"t.	c #420000",
"u.	c #090000",
"v.	c #170000",
"w.	c #190000",
"x.	c #1B0000",
"y.	c #1A0000",
"z.	c #161616",
"A.	c #545454",
"B.	c #565656",
"C.	c #585858",
"D.	c #575757",
"E.	c #595959",
"F.	c #555555",
"G.	c #414141",
"H.	c #929292",
"I.	c #939393",
"J.	c #919191",
"K.	c #8F8F8F",
"L.	c #949494",
"M.	c #7E7E7E",
"N.	c #282828",
"O.	c #292929",
"P.	c #272727",
"Q.	c #252525",
"R.	c #232323",
"S.	c #222222",
"T.	c #242424",
"U.	c #262626",
"V.	c #202020",
"W.	c #090909",
"X.	c #272729",
"Y.	c #28282A",
"Z.	c #292823",
"`.	c #27271D",
" +	c #1F1E23",
".+	c #1D1D1F",
"++	c #1A1A18",
"@+	c #18171C",
"#+	c #191813",
"$+	c #1A171E",
"%+	c #373634",
"&+	c #363533",
"*+	c #363634",
"=+	c #323838",
"-+	c #2F3430",
";+	c #272733",
">+	c #22231B",
",+	c #262520",
"'+	c #2B2A28",
")+	c #2A2A28",
"!+	c #26252A",
". . + + + @ @ @ @ @ @ @ @ @ @ @ @ @ @ @ @ # # + + + + + $ % % % % % % % % & * = - ",
"; > > > > ; ; ; ; ; ; ; ; ; ; ; ; ; ; ; ; , , ' > > > > > > > > > > > > > ) ! ~ { ",
"] ^ / ^ ( ( ( ( ( ( ( ( ( _ ] _ ] ] ^ : ] ] ( ( _ ] < [ ] ( ( ( ( ( ( ( ( _ [ } [ ",
"| 1 1 1 | 1 1 1 1 1 1 1 1 2 2 2 3 1 4 5 1 2 5 4 1 4 1 3 2 1 1 1 1 1 1 1 1 1 4 4 4 ",
"6 7 8 9 8 6 6 6 6 6 6 6 6 0 6 0 0 9 9 6 0 6 8 8 6 9 8 0 0 6 6 6 6 6 6 6 6 a a b c ",
"d e f g h i i i i i i i i j k l f k m k j f e h m k m i f i i i i i i i i n i k o ",
"p q q m r s s s s s s s s s r r r j t u u v f w x e g s y s s s s s s s s y s s z ",
"A B C D E F F F F F F F F G E F H I J J K L M N F C E E F F F F F F F F F F F G O ",
"P Q Q R S T T T T T T T T U S N V W X Y Z X W `  ...U Q R T T T T T T T T R S S +.",
"P @.#.@.$.%.%.%.%.%.%.%.%.&.*.=.-.;.>.%.$.@.,.'.I *.$.$.%.%.%.%.%.%.%.%.%.%.$.$.).",
"!.~.{.].^.].].].].].].].]./.(.K _.:.^.:.<.:.<.[.L }.{./.|.].].].].].].].].].^.^.1.",
"2.3.4.5.5.5.5.5.5.5.5.5.5.5.f L :.5.4.6.5.6.5.7.8.j 5.3.5.5.5.5.5.5.5.5.5.5.5.5.0 ",
"9.5.5.5.4.5.5.5.5.5.5.5.5.5.l 0.~.5.5.5.a.5.a.7.b.j 5.4.6.5.5.5.5.5.5.5.5.6.4.a.5.",
"d 3.4.5.5.5.5.5.5.5.5.5.5.6.|.8.c.5.4.5.5.6.5.d.L |.3.5.4.5.5.5.5.5.5.5.5.5.5.6.5.",
"9.5.5.6.5.5.5.5.5.5.5.5.5.5.e.f.J ^.5.a.5.5.<.b.g.h.5.a.5.5.5.5.5.5.5.5.5.a.5.5.i.",
"j.6.a.5.5.6.6.6.6.6.6.6.6.5.4.k.'.l. .m.m.Y 8.K ~.5.5.4.5.6.6.6.6.6.6.6.6.5.4.5.i.",
"n.5.6.5.a.5.5.5.5.5.5.5.5.4.5.a.o.p.b.b.L b.p.q.5.5.3.5.5.5.5.5.5.5.5.5.5.5.6.5.5.",
"r.5.5.6.5.5.5.5.5.5.5.5.5.5.4.5.5.s.t.x F 7.u.5.5.5.4.5.3.5.5.5.5.5.5.5.5.6.5.3.5.",
"2.a.5.6.5.5.5.5.5.5.5.5.5.5.5.5.5.5.5.5.5.5.5.5.5.5.5.5.5.5.5.5.5.5.5.5.5.5.6.5.i.",
"r.v.w.x.y.y.y.y.y.y.y.y.y.y.y.y.y.y.y.y.y.y.y.y.y.y.y.y.y.y.y.y.y.y.y.y.y.x.w.y.z.",
"A.B.C.D.E.D.D.D.D.D.D.D.D.D.D.D.D.D.D.D.D.D.D.D.D.D.D.D.D.D.D.D.D.D.D.D.D.D.D.F.G.",
"H.I.J.K.J.H.H.H.H.H.H.H.H.H.H.H.H.H.H.H.H.H.H.H.H.H.H.H.H.H.H.H.H.H.H.H.H.L.J.M.} ",
"N.O.O.N.P.P.P.P.P.P.P.P.P.P.P.P.P.P.P.P.P.P.P.P.P.P.P.P.P.P.P.P.P.P.P.P.P.Q.P.P.P.",
"R.S.S.T.S.R.R.R.R.R.R.R.R.R.R.R.R.R.R.R.R.R.R.R.R.R.R.R.R.R.R.R.R.R.R.R.R.U.R.Q.Q.",
"!.p d p p j.j.j.j.j.j.j.j.j.j.j.j.j.j.j.j.j.j.j.j.j.j.j.j.j.j.j.j.j.j.j.j.r.!.S.V.",
"8 9 6 6 6 W.W.W.W.W.W.W.W.W.W.W.W.W.W.W.W.W.W.W.W.W.W.W.W.W.W.W.W.W.W.W.W.8 W.0 7 ",
"X.X.X.X.Y.P.P.P.P.P.P.P.P.P.P.P.P.P.P.P.P.Z.`. +.+++@+#+$+d d 2.z.j.2.p n.2.9.d p ",
"%+&+&+%+%+&+&+%+%+%+%+%+%+*+*+*+*+*+*+*+*+=+-+;+>+,+'+)+!+N.U.P.O.O.T.P.O.P.O.P.P."};
