/* XPM */
static char * close_active_xpm[] = {
"41 28 227 2",
"  	c #5D6073",
". 	c #5A5F72",
"+ 	c #5C5F72",
"@ 	c #5A6070",
"# 	c #595E71",
"$ 	c #5A5F73",
"% 	c #515F6C",
"& 	c #586474",
"* 	c #4A5569",
"= 	c #485371",
"- 	c #6D6B6C",
"; 	c #6C6C6C",
"> 	c #6D6D6B",
", 	c #6C6C6A",
"' 	c #716C69",
") 	c #696363",
"! 	c #6C6764",
"~ 	c #656158",
"{ 	c #606060",
"] 	c #636363",
"^ 	c #5D5D5D",
"/ 	c #616161",
"( 	c #626262",
"_ 	c #5F5F5F",
": 	c #656565",
"< 	c #5E5E5E",
"[ 	c #5B5B5B",
"} 	c #4F4F4F",
"| 	c #505050",
"1 	c #515151",
"2 	c #535353",
"3 	c #4E4E4E",
"4 	c #525252",
"5 	c #080808",
"6 	c #0B0B0B",
"7 	c #070707",
"8 	c #0A0A0A",
"9 	c #060606",
"0 	c #070908",
"a 	c #0C0C0C",
"b 	c #050505",
"c 	c #191919",
"d 	c #767676",
"e 	c #7B7B7B",
"f 	c #747474",
"g 	c #7F7F7F",
"h 	c #797B7A",
"i 	c #7C7E7D",
"j 	c #777978",
"k 	c #7D7F7E",
"l 	c #7B7D7C",
"m 	c #787A79",
"n 	c #767877",
"o 	c #7F8180",
"p 	c #7A7C7B",
"q 	c #7A7A7A",
"r 	c #1C1C1C",
"s 	c #757575",
"t 	c #787878",
"u 	c #717171",
"v 	c #737574",
"w 	c #717372",
"x 	c #989A99",
"y 	c #ABADAC",
"z 	c #969897",
"A 	c #6E706F",
"B 	c #707271",
"C 	c #747675",
"D 	c #727473",
"E 	c #1B1D1C",
"F 	c #666867",
"G 	c #676968",
"H 	c #6B6D6C",
"I 	c #696B6A",
"J 	c #6A6B6D",
"K 	c #68696B",
"L 	c #696A6C",
"M 	c #999A9C",
"N 	c #D0D1D3",
"O 	c #DEDFE1",
"P 	c #DADBDD",
"Q 	c #DCDDDF",
"R 	c #CFD0D2",
"S 	c #919294",
"T 	c #67686A",
"U 	c #6A6C6B",
"V 	c #686A69",
"W 	c #171918",
"X 	c #626463",
"Y 	c #5E605F",
"Z 	c #606261",
"` 	c #5F6062",
" .	c #616264",
"..	c #606163",
"+.	c #D7D8DA",
"@.	c #E2E3E5",
"#.	c #B2B3B5",
"$.	c #929395",
"%.	c #939496",
"&.	c #D6D7D9",
"*.	c #949597",
"=.	c #5C5D5F",
"-.	c #626365",
";.	c #5E5F61",
">.	c #5F6160",
",.	c #555756",
"'.	c #525453",
").	c #535554",
"!.	c #545557",
"~.	c #515254",
"{.	c #636466",
"].	c #D1D2D4",
"^.	c #E1E2E4",
"/.	c #828385",
"(.	c #57585A",
"_.	c #535456",
":.	c #555658",
"<.	c #858688",
"[.	c #DFE0E2",
"}.	c #545655",
"|.	c #1E1E1E",
"1.	c #444444",
"2.	c #4B4B4B",
"3.	c #484848",
"4.	c #494949",
"5.	c #464A49",
"6.	c #878B8A",
"7.	c #DADCDB",
"8.	c #A9ABAA",
"9.	c #474948",
"0.	c #474747",
"a.	c #4A4A4A",
"b.	c #4A4C4B",
"c.	c #AAACAB",
"d.	c #DCDEDD",
"e.	c #868887",
"f.	c #464646",
"g.	c #4C4C4C",
"h.	c #181818",
"i.	c #040404",
"j.	c #020202",
"k.	c #000000",
"l.	c #000100",
"m.	c #010101",
"n.	c #010302",
"o.	c #434544",
"p.	c #DDDFDE",
"q.	c #1A1A1A",
"r.	c #D9DBDA",
"s.	c #444645",
"t.	c #030303",
"u.	c #030504",
"v.	c #DBDDDC",
"w.	c #4C4E4D",
"x.	c #8B8D8C",
"y.	c #020403",
"z.	c #000201",
"A.	c #8C8E8D",
"B.	c #0F1110",
"C.	c #C6C8C7",
"D.	c #DEE0DF",
"E.	c #494B4A",
"F.	c #C7C9C8",
"G.	c #101211",
"H.	c #1B1B1B",
"I.	c #3C3C3C",
"J.	c #DFE1E0",
"K.	c #D8DAD9",
"L.	c #949695",
"M.	c #4D4F4E",
"N.	c #929493",
"O.	c #171717",
"P.	c #3F4140",
"Q.	c #CACCCB",
"R.	c #DCE0DF",
"S.	c #404241",
"T.	c #1D1D1D",
"U.	c #080A09",
"V.	c #424443",
"W.	c #707473",
"X.	c #6A6E6D",
"Y.	c #090B0A",
"Z.	c #161616",
"`.	c #545454",
" +	c #565656",
".+	c #585858",
"++	c #575757",
"@+	c #595959",
"#+	c #555555",
"$+	c #414141",
"%+	c #929292",
"&+	c #939393",
"*+	c #919191",
"=+	c #8F8F8F",
"-+	c #949494",
";+	c #7E7E7E",
">+	c #282828",
",+	c #292929",
"'+	c #272727",
")+	c #252525",
"!+	c #232323",
"~+	c #222222",
"{+	c #242424",
"]+	c #262626",
"^+	c #202020",
"/+	c #090909",
"(+	c #272729",
"_+	c #28282A",
":+	c #292823",
"<+	c #27271D",
"[+	c #1F1E23",
"}+	c #1D1D1F",
"|+	c #1A1A18",
"1+	c #18171C",
"2+	c #191813",
"3+	c #1A171E",
"4+	c #373634",
"5+	c #363533",
"6+	c #363634",
"7+	c #323838",
"8+	c #2F3430",
"9+	c #272733",
"0+	c #22231B",
"a+	c #262520",
"b+	c #2B2A28",
"c+	c #2A2A28",
"d+	c #26252A",
"    . . . + + + + + + + + + + + + + + + + @ @ . . . . . # $ $ $ $ $ $ $ $ % & * = ",
"- ; ; ; ; - - - - - - - - - - - - - - - - > > , ; ; ; ; ; ; ; ; ; ; ; ; ; ' ) ! ~ ",
"{ ] ^ ] / / / / / / / / / ( { ( { { ] _ { { / / ( { : < { / / / / / / / / ( < [ < ",
"} | | | } | | | | | | | | 1 1 1 2 | 3 4 | 1 4 3 | 3 | 2 1 | | | | | | | | | 3 3 3 ",
"5 6 7 8 7 5 5 5 5 5 5 5 5 9 5 9 9 8 8 5 9 5 7 7 5 8 7 9 9 5 5 5 5 5 5 5 5 0 0 a b ",
"c d e f g h h h h h h h h i j k l j m j i l n o m j m h l h h h h h h h h p h j q ",
"r s s t u v v v v v v v v v w w w i x y y z l A B n C v D v v v v v v v v D v v j ",
"E F G H I J J J J J J J J K L J M N O O P Q R S J T L L J J J J J J J J J U U V H ",
"W X X Y Z ` ` ` ` ` ` ` `  ...S +.@.#.$.%.#.@.&.*.=. .-.;.` ` ` ` ` ` ` ` Y Z Z >.",
"W ,.'.,.).!.!.!.!.!.!.!.!.~.{.].^./.(.!._.:.<.[.N {._._.!.!.!.!.!.!.!.!.!.}.).).}.",
"|.1.2.3.4.3.3.3.3.3.3.3.3.5.6.7.8.9.4.0.a.9.b.c.d.e.2.f.g.3.3.3.3.3.3.3.3.3.4.4.0.",
"h.i.j.k.k.k.k.k.k.k.k.k.k.l.l d.9.l.j.m.k.n.l.o.p.i k.i.k.k.k.k.k.k.k.k.k.k.k.k.9 ",
"q.k.k.k.j.k.k.k.k.k.k.k.k.l.k r.s.l.k.k.t.l.u.o.v.i k.j.m.k.k.k.k.k.k.k.k.m.j.t.k.",
"c i.j.k.k.k.k.k.k.k.k.k.k.n.w.p.x.l.y.z.l.n.l.A.d.w.i.k.j.k.k.k.k.k.k.k.k.k.k.m.k.",
"q.k.k.m.k.k.k.k.k.k.k.k.k.l.B.C.D.E.l.u.l.l.b.v.F.G.k.t.k.k.k.k.k.k.k.k.k.t.k.k.m.",
"H.m.t.k.k.m.m.m.m.m.m.m.m.k.j.I.J.K.L.M.M.N.p.7.s.l.k.j.k.m.m.m.m.m.m.m.m.k.j.k.m.",
"O.k.m.k.t.k.k.k.k.k.k.k.k.j.k.t.P.Q.v.v.R.v.Q.S.l.l.i.k.k.k.k.k.k.k.k.k.k.k.m.k.k.",
"T.k.k.m.k.k.k.k.k.k.k.k.k.k.j.k.l.U.V.W.X.o.Y.l.z.l.j.k.i.k.k.k.k.k.k.k.k.m.k.i.k.",
"h.t.k.m.k.k.k.k.k.k.k.k.k.k.k.k.k.k.k.k.k.k.k.k.k.k.k.k.k.k.k.k.k.k.k.k.k.k.m.k.m.",
"T.O.c H.q.q.q.q.q.q.q.q.q.q.q.q.q.q.q.q.q.q.q.q.q.q.q.q.q.q.q.q.q.q.q.q.q.H.c q.Z.",
"`. +.+++@+++++++++++++++++++++++++++++++++++++++++++++++++++++++++++++++++++++#+$+",
"%+&+*+=+*+%+%+%+%+%+%+%+%+%+%+%+%+%+%+%+%+%+%+%+%+%+%+%+%+%+%+%+%+%+%+%+%+-+*+;+[ ",
">+,+,+>+'+'+'+'+'+'+'+'+'+'+'+'+'+'+'+'+'+'+'+'+'+'+'+'+'+'+'+'+'+'+'+'+'+)+'+'+'+",
"!+~+~+{+~+!+!+!+!+!+!+!+!+!+!+!+!+!+!+!+!+!+!+!+!+!+!+!+!+!+!+!+!+!+!+!+!+]+!+)+)+",
"|.r c r r H.H.H.H.H.H.H.H.H.H.H.H.H.H.H.H.H.H.H.H.H.H.H.H.H.H.H.H.H.H.H.H.T.|.~+^+",
"7 8 5 5 5 /+/+/+/+/+/+/+/+/+/+/+/+/+/+/+/+/+/+/+/+/+/+/+/+/+/+/+/+/+/+/+/+7 /+9 6 ",
"(+(+(+(+_+'+'+'+'+'+'+'+'+'+'+'+'+'+'+'+'+:+<+[+}+|+1+2+3+c c h.Z.H.h.r O.h.q.c r ",
"4+5+5+4+4+5+5+4+4+4+4+4+4+6+6+6+6+6+6+6+6+7+8+9+0+a+b+c+d+>+]+'+,+,+{+'+,+'+,+'+'+"};
