/* XPM */
static char * close_inactive_xpm[] = {
"34 24 34 1",
" 	c #030303",
".	c #B0B0B0",
"+	c #565656",
"@	c #959393",
"#	c #0E0E0E",
"$	c #000000",
"%	c #767676",
"&	c #717171",
"*	c #4C4C4C",
"=	c #6E6E6E",
"-	c #494949",
";	c #6A6A6A",
">	c #474747",
",	c #F6F6F6",
"'	c #666666",
")	c #444444",
"!	c #F5F5F5",
"~	c #626262",
"{	c #424242",
"]	c #F4F4F4",
"^	c #606060",
"/	c #404040",
"(	c #F2F2F2",
"_	c #191919",
":	c #111111",
"<	c #C3C3C3",
"[	c #545454",
"}	c #181818",
"|	c #101010",
"1	c #C2C2C2",
"2	c #050505",
"3	c #0A0A0A",
"4	c #0D0D0D",
"5	c #040404",
"                                  ",
"..................................",
"++++++++++++++++++++++++++++++++++",
"@@@@@@@@@@@@@@@@@@@@@@@@@@@@@@@@@@",
"#$$$$$$$$$$$$$$$$$$$$$$$$$$$$$$$#@",
"$%%%%%%%%%%%%%%%%%%%%%%%%%%%%%%%$@",
"$&*****************************&$@",
"$=-----------------------------=$@",
"$;>>>>>>>>>>,,,>>>,,,>>>>>>>>>>;$@",
"$')))))))))))!!!)!!!)))))))))))'$@",
"$~{{{{{{{{{{{{]]]]]{{{{{{{{{{{{~$@",
"$^/////////////(((/////////////^$@",
"$_:::::::::::::<<<:::::::::::::_$[",
"$}||||||||||||11111||||||||||||}$[",
"$}|||||||||||111|111|||||||||||}$[",
"$}||||||||||111|||111||||||||||}$[",
"$}|||||||||||||||||||||||||||||}$[",
"$}}}}}}}}}}}}}}}}}}}}}}}}}}}}}}}$[",
"2$$$$$$$$$$$$$$$$$$$$$$$$$$$$$$$2[",
"[[[[[[[[[[[[[[[[[[[[[[[[[[[[[[[[[[",
"3333333333333333333333333333333334",
"5555555555555555555555555555555555",
"{{{{{{{{{{{{{{{{{{{{{{{{{{{{{{{{{{",
"                                  "};
