/* XPM */
static char * close_pressed_xpm[] = {
"34 24 57 1",
" 	c None",
".	c #030303",
"+	c #B0B0B0",
"@	c #565656",
"#	c #959393",
"$	c #090508",
"%	c #000000",
"&	c #6C0608",
"*	c #5D0506",
"=	c #79070A",
"-	c #380607",
";	c #9C0F12",
">	c #4E0A0C",
",	c #510B0D",
"'	c #BD1821",
")	c #631115",
"!	c #671317",
"~	c #CD8891",
"{	c #C41F2B",
"]	c #6C161B",
"^	c #711920",
"/	c #E7C1D8",
"(	c #C82231",
"_	c #731920",
":	c #781C24",
"<	c #FAE9FF",
"[	c #CB2432",
"}	c #7A1A21",
"|	c #7D1E25",
"1	c #FFFAFF",
"2	c #6F070C",
"3	c #36050A",
"4	c #3C060A",
"5	c #FABCCC",
"6	c #545454",
"7	c #79090D",
"8	c #38060B",
"9	c #3D070B",
"0	c #FFD8EA",
"a	c #880910",
"b	c #36070B",
"c	c #40070D",
"d	c #FFE8FC",
"e	c #8E0C13",
"f	c #42070E",
"g	c #4A0910",
"h	c #FFF8FF",
"i	c #990E14",
"j	c #500910",
"k	c #5A0913",
"l	c #C31624",
"m	c #C71624",
"n	c #CA162A",
"o	c #030203",
"p	c #0A0A0A",
"q	c #040404",
"r	c #7C7C7C",
"..................................",
"++++++++++++++++++++++++++++++++++",
"@@@@@@@@@@@@@@@@@@@@@@@@@@@@@@@@@@",
"##################################",
"$%%%%%%%%%%%%%%%%%%%%%%%%%%%%%%%$#",
"%&*****************************&%#",
"%=-----------------------------=%#",
"%;>,,,,,,,,,,,,,,,,,,,,,,,,,,,>;%#",
"%')!!!!!!!!!~~~!!!~~~!!!!!!!!!)'%#",
"%{]^^^^^^^^^^///^///^^^^^^^^^^]{%#",
"%(_:::::::::::<<<<<:::::::::::_(%#",
"%[}||||||||||||111||||||||||||}[%#",
"%2344444444444455544444444444432%6",
"%7899999999999000009999999999987%6",
"%abccccccccccdddcdddccccccccccba%6",
"%efggggggggghhhggghhhgggggggggfe%6",
"%ijkkkkkkkkkkkkkkkkkkkkkkkkkkkji%6",
"%lmnnnnnnnnnnnnnnnnnnnnnnnnnnnml%6",
"o%%%%%%%%%%%%%%%%%%%%%%%%%%%%%%%o6",
"6666666666666666666666666666666666",
"pppppppppppppppppppppppppppppppppp",
"qqqqqqqqqqqqqqqqqqqqqqqqqqqqqqqqqq",
"rrrrrrrrrrrrrrrrrrrrrrrrrrrrrrrrrr",
".................................."};
