/* XPM */
static char * hide_active_xpm[] = {
"32 24 38 1",
" 	c None",
".	c #030303",
"+	c #B0B0B0",
"@	c #565656",
"#	c #959393",
"$	c #0E0E0E",
"%	c #000000",
"&	c #1FA8E2",
"*	c #1EA6E0",
"=	c #1968A5",
"-	c #1CA5DF",
";	c #1866A3",
">	c #1AA2DE",
",	c #1664A0",
"'	c #199FDC",
")	c #16629F",
"!	c #1664A1",
"~	c #1CA8E3",
"{	c #186AAA",
"]	c #FFFFFF",
"^	c #545454",
"/	c #0448C2",
"(	c #032C70",
"_	c #D8FFFF",
":	c #0450C9",
"<	c #04317A",
"[	c #055DD3",
"}	c #053A8B",
"|	c #0771E1",
"1	c #0646A2",
"2	c #0B91F8",
"3	c #0959C7",
"4	c #11B8FF",
"5	c #050505",
"6	c #0D0D0D",
"7	c #0A0A0A",
"8	c #040404",
"9	c #7C7C7C",
"................................",
"++++++++++++++++++++++++++++++++",
"@@@@@@@@@@@@@@@@@@@@@@@@@@@@@@@@",
"################################",
"#$%%%%%%%%%%%%%%%%%%%%%%%%%%%%%%",
"#%&&&&&&&&&&&&&&&&&&&&&&&&&&&&&&",
"#%*============================*",
"#%-;;;;;;;;;;;;;;;;;;;;;;;;;;;;-",
"#%>,,,,,,,,,,,,,,,,,,,,,,,,,,,,>",
"#%'))))))))))))))))))))))))))))'",
"#%>!!!!!!!!!!!!!!!!!!!!!!!!!!!!>",
"#%~{{{{{{{{{]]]]]]]]]]{{{{{{{{{~",
"^%/(((((((((__________(((((((((/",
"^%:<<<<<<<<<]]]]]]]]]]<<<<<<<<<:",
"^%[}}}}}}}}}}}}}}}}}}}}}}}}}}}}[",
"^%|1111111111111111111111111111|",
"^%233333333333333333333333333332",
"^%444444444444444444444444444444",
"^5%%%%%%%%%%%%%%%%%%%%%%%%%%%%%%",
"^^^^^^^^^^^^^^^^^^^^^^^^^^^^^^^^",
"67777777777777777777777777777777",
"88888888888888888888888888888888",
"99999999999999999999999999999999",
"................................"};
