/* XPM */
static char * hide_pressed_xpm[] = {
"29 28 114 2",
"  	c None",
". 	c #5A5D70",
"+ 	c #5F6275",
"@ 	c #5D6073",
"# 	c #5C5F72",
"$ 	c #5D5E72",
"% 	c #5A5F72",
"& 	c #070707",
"* 	c #0C0C0C",
"= 	c #181818",
"- 	c #6B6B6B",
"; 	c #6C6C6C",
"> 	c #6D6D6D",
", 	c #6D6B6E",
"' 	c #6C6C6E",
") 	c #0A0A0A",
"! 	c #191919",
"~ 	c #272727",
"{ 	c #616161",
"] 	c #646263",
"^ 	c #141414",
"/ 	c #1F1F1F",
"( 	c #262626",
"_ 	c #4E4E4E",
": 	c #505050",
"< 	c #4F4D4E",
"[ 	c #222222",
"} 	c #1B1B1B",
"| 	c #161616",
"1 	c #090909",
"2 	c #080808",
"3 	c #131313",
"4 	c #1D1D1D",
"5 	c #007B00",
"6 	c #151515",
"7 	c #007100",
"8 	c #007500",
"9 	c #1E1E1E",
"0 	c #111111",
"a 	c #1C1C1C",
"b 	c #006B00",
"c 	c #0F0F0F",
"d 	c #006000",
"e 	c #171717",
"f 	c #0D0D0D",
"g 	c #212121",
"h 	c #005600",
"i 	c #005500",
"j 	c #101010",
"k 	c #004500",
"l 	c #004800",
"m 	c #004900",
"n 	c #004A00",
"o 	c #004B00",
"p 	c #004700",
"q 	c #004400",
"r 	c #004C00",
"s 	c #232323",
"t 	c #000300",
"u 	c #000000",
"v 	c #000100",
"w 	c #202020",
"x 	c #000200",
"y 	c #000500",
"z 	c #000400",
"A 	c #1A1A1A",
"B 	c #00A100",
"C 	c #00E500",
"D 	c #00EA00",
"E 	c #00E600",
"F 	c #00E200",
"G 	c #00E400",
"H 	c #007C00",
"I 	c #00E700",
"J 	c #00E800",
"K 	c #00E900",
"L 	c #00B300",
"M 	c #00E000",
"N 	c #00E300",
"O 	c #121212",
"P 	c #007A00",
"Q 	c #00B100",
"R 	c #00B000",
"S 	c #00B700",
"T 	c #00AE00",
"U 	c #00AF00",
"V 	c #001700",
"W 	c #001A00",
"X 	c #3C3C3C",
"Y 	c #535353",
"Z 	c #575757",
"` 	c #545454",
" .	c #767676",
"..	c #929292",
"+.	c #939393",
"@.	c #949494",
"#.	c #0B0B0B",
"$.	c #2A2A2A",
"%.	c #7E7E7E",
"&.	c #292929",
"*.	c #252525",
"=.	c #525252",
"-.	c #242424",
";.	c #414141",
">.	c #434343",
",.	c #2B2B2B",
"'.	c #282828",
").	c #373634",
"!.	c #383735",
"~.	c #343331",
"{.	c #393836",
"].	c #363533",
"^.	c #353533",
"/.	c #363634",
". + . @ # # # # # # # # @ @ @ # # # # # $ # # % % # # $ # ",
"& * = - ; ; ; ; ; ; ; ; > > > ; ; ; ; ; , , ' ' ' ' , , ' ",
") ! ~ { { { { { { { { { { { { { { { { { { { { { { { { { ] ",
"^ / ( _ : : : : : : : : : : : : : : : : : : : : : : : : < ",
"* [ } | 1 1 1 1 1 1 1 1 2 2 2 2 2 2 2 2 2 2 2 2 2 2 2 2 * ",
"3 } 4 5 5 5 5 5 5 5 5 5 5 5 5 5 5 5 5 5 5 5 5 5 5 5 5 5 6 ",
"3 / = 7 8 8 8 8 8 8 8 8 8 8 8 8 8 8 8 8 8 8 8 8 8 8 8 8 9 ",
"0 9 a b b b b b b b b b b b b b b b b b b b b b b b b b ! ",
"c / 4 d d d d d d d d d d d d d d d d d d d d d d d d d e ",
"f g = h i i i i i i i i i i i i i i i i i i i i i i i i a ",
"j 4 4 k l m m l m n l n o l p o q r l m l l l l l l l l ! ",
"c s 6 t u v u u u u v u u v u v u u u u u u u u u u u u a ",
"* w 4 u x u x u y u u x u x u u z u v v u u u u u u u u ! ",
"j 4 A v v u z u u y B C D E E D F E G H u u u u u u u u ! ",
"0 [ ! u v v u x u u E E G C I G J K D L u u u u u u u u a ",
"f / ! v u x u u u z C C E J E M D N C M v v v v v v v v } ",
"O w ! u u u t t u u P Q Q R R S T L U i u u u u u u u u = ",
"0 9 A v u t u u u t u u u u x u u t u x u u u u u u u u a ",
"0 4 A v u u u u u u u u u u u u u u u u u u u u u u u u a ",
"0 / a V W W W W W W W W W W W W W W W W W W W W W W W W A ",
"j [ X Y Z Z Z Z Z Z Z Z Z Z Z Z Z Z Z Z Z Z Z Z Z Z Z Z ` ",
"^ [  ...+.+.+.+.........................................@.",
"#.$.%.~ ~ ~ ~ ~ ~ ~ ( ( ~ ~ ~ ~ ~ ~ ~ ~ ~ ~ ~ ~ ~ ~ ~ ~ &.",
"f *.=.*.-.-.-.-.s s s s s s s s s s s s s s s s s s s s s ",
"j [ [ } a a a a } } } } } } } } } } } } } } } } } } } } a ",
"0 / 4 6 1 1 1 1 1 1 1 2 1 1 1 1 1 1 1 1 1 1 1 1 1 1 1 1 2 ",
";.: _ >.,.&.'.~ ~ ~ ~ ~ '.'.~ ~ ~ ~ ~ '.~ '.~ ~ ~ ~ ~ '.~ ",
").!.).~.{.!.).].).).).).].].].].).).).).^.^.^./././././.]."};
