/* XPM */
static char * hide_active_xpm[] = {
"29 28 114 2",
"  	c #5A5D70",
". 	c #5F6275",
"+ 	c #5D6073",
"@ 	c #5C5F72",
"# 	c #5D5E72",
"$ 	c #5A5F72",
"% 	c #070707",
"& 	c #0C0C0C",
"* 	c #181818",
"= 	c #6B6B6B",
"- 	c #6C6C6C",
"; 	c #6D6D6D",
"> 	c #6D6B6E",
", 	c #6C6C6E",
"' 	c #0A0A0A",
") 	c #191919",
"! 	c #272727",
"~ 	c #616161",
"{ 	c #646263",
"] 	c #141414",
"^ 	c #1F1F1F",
"/ 	c #262626",
"( 	c #4E4E4E",
"_ 	c #505050",
": 	c #4F4D4E",
"< 	c #222222",
"[ 	c #1B1B1B",
"} 	c #161616",
"| 	c #090909",
"1 	c #080808",
"2 	c #131313",
"3 	c #1D1D1D",
"4 	c #7B7B7B",
"5 	c #797B7A",
"6 	c #151515",
"7 	c #717171",
"8 	c #737574",
"9 	c #1E1E1E",
"0 	c #111111",
"a 	c #1C1C1C",
"b 	c #6A6B6D",
"c 	c #0F0F0F",
"d 	c #606060",
"e 	c #5F6062",
"f 	c #171717",
"g 	c #0D0D0D",
"h 	c #212121",
"i 	c #565656",
"j 	c #545557",
"k 	c #101010",
"l 	c #454545",
"m 	c #484848",
"n 	c #494949",
"o 	c #4A4A4A",
"p 	c #4B4B4B",
"q 	c #474747",
"r 	c #444444",
"s 	c #4C4C4C",
"t 	c #232323",
"u 	c #030303",
"v 	c #000000",
"w 	c #010101",
"x 	c #202020",
"y 	c #020202",
"z 	c #050505",
"A 	c #040404",
"B 	c #1A1A1A",
"C 	c #A1A1A1",
"D 	c #E5E5E5",
"E 	c #EAEAEA",
"F 	c #E6E6E6",
"G 	c #E2E2E2",
"H 	c #E4E4E4",
"I 	c #7C7C7C",
"J 	c #E7E7E7",
"K 	c #E8E8E8",
"L 	c #E9E9E9",
"M 	c #B3B3B3",
"N 	c #E0E0E0",
"O 	c #E3E3E3",
"P 	c #121212",
"Q 	c #7A7A7A",
"R 	c #B1B1B1",
"S 	c #B0B0B0",
"T 	c #B7B7B7",
"U 	c #AEAEAE",
"V 	c #AFAFAF",
"W 	c #555555",
"X 	c #3C3C3C",
"Y 	c #535353",
"Z 	c #575757",
"` 	c #545454",
" .	c #767676",
"..	c #929292",
"+.	c #939393",
"@.	c #949494",
"#.	c #0B0B0B",
"$.	c #2A2A2A",
"%.	c #7E7E7E",
"&.	c #292929",
"*.	c #252525",
"=.	c #525252",
"-.	c #242424",
";.	c #414141",
">.	c #434343",
",.	c #2B2B2B",
"'.	c #282828",
").	c #373634",
"!.	c #383735",
"~.	c #343331",
"{.	c #393836",
"].	c #363533",
"^.	c #353533",
"/.	c #363634",
"  .   + @ @ @ @ @ @ @ @ + + + @ @ @ @ @ # @ @ $ $ @ @ # @ ",
"% & * = - - - - - - - - ; ; ; - - - - - > > , , , , > > , ",
"' ) ! ~ ~ ~ ~ ~ ~ ~ ~ ~ ~ ~ ~ ~ ~ ~ ~ ~ ~ ~ ~ ~ ~ ~ ~ ~ { ",
"] ^ / ( _ _ _ _ _ _ _ _ _ _ _ _ _ _ _ _ _ _ _ _ _ _ _ _ : ",
"& < [ } | | | | | | | | 1 1 1 1 1 1 1 1 1 1 1 1 1 1 1 1 & ",
"2 [ 3 4 5 5 5 5 5 5 5 5 5 5 5 5 5 5 5 5 5 5 5 5 5 5 5 5 6 ",
"2 ^ * 7 8 8 8 8 8 8 8 8 8 8 8 8 8 8 8 8 8 8 8 8 8 8 8 8 9 ",
"0 9 a = b b b b b b b b b b b b b b b b b b b b b b b b ) ",
"c ^ 3 d e e e e e e e e e e e e e e e e e e e e e e e e f ",
"g h * i j j j j j j j j j j j j j j j j j j j j j j j j a ",
"k 3 3 l m n n m n o m o p m q p r s m n m m m m m m m m ) ",
"c t 6 u v w v v v v w v v w v w v v v v v v v v v v v v a ",
"& x 3 v y v y v z v v y v y v v A v w w v v v v v v v v ) ",
"k 3 B w w v A v v z C D E F F E G F H I v v v v v v v v ) ",
"0 < ) v w w v y v v F F H D J H K L E M v v v v v v v v a ",
"g ^ ) w v y v v v A D D F K F N E O D N w w w w w w w w [ ",
"P x ) v v v u u v v Q R R S S T U M V W v v v v v v v v * ",
"0 9 B w v u v v v u v v v v y v v u v y v v v v v v v v a ",
"0 3 B w v v v v v v v v v v v v v v v v v v v v v v v v a ",
"0 ^ a f B B B B B B B B B B B B B B B B B B B B B B B B B ",
"k < X Y Z Z Z Z Z Z Z Z Z Z Z Z Z Z Z Z Z Z Z Z Z Z Z Z ` ",
"] <  ...+.+.+.+.........................................@.",
"#.$.%.! ! ! ! ! ! ! / / ! ! ! ! ! ! ! ! ! ! ! ! ! ! ! ! &.",
"g *.=.*.-.-.-.-.t t t t t t t t t t t t t t t t t t t t t ",
"k < < [ a a a a [ [ [ [ [ [ [ [ [ [ [ [ [ [ [ [ [ [ [ [ a ",
"0 ^ 3 6 | | | | | | | 1 | | | | | | | | | | | | | | | | 1 ",
";._ ( >.,.&.'.! ! ! ! ! '.'.! ! ! ! ! '.! '.! ! ! ! ! '.! ",
").!.).~.{.!.).].).).).).].].].].).).).).^.^.^./././././.]."};
