/* XPM */
static char * hide_pressed_xpm[] = {
"32 24 58 1",
" 	c None",
".	c #030303",
"+	c #B0B0B0",
"@	c #565656",
"#	c #959393",
"$	c #0E0E0E",
"%	c #000000",
"&	c #04358B",
"*	c #022D7C",
"=	c #022D7E",
"-	c #043F9D",
";	c #021E49",
">	c #021E4C",
",	c #075BC1",
"'	c #053065",
")	c #063369",
"!	c #063269",
"~	c #0E79CD",
"{	c #0A437E",
"]	c #0B4783",
"^	c #0A4682",
"/	c #1288D4",
"(	c #0D4D89",
"_	c #0E528E",
":	c #0E518E",
"<	c #1493D9",
"[	c #0F5391",
"}	c #115A97",
"|	c #169DDD",
"1	c #105998",
"2	c #135F9E",
"3	c #FFFFFF",
"4	c #545454",
"5	c #022185",
"6	c #011343",
"7	c #011348",
"8	c #288AC2",
"9	c #022491",
"0	c #011549",
"a	c #01154F",
"b	c #329CD7",
"c	c #022BA5",
"d	c #011A54",
"e	c #011A59",
"f	c #0235BE",
"g	c #021E60",
"h	c #021E67",
"i	c #0443CD",
"j	c #032874",
"k	c #03287C",
"l	c #0871F8",
"m	c #087BFF",
"n	c #0885FF",
"o	c #050505",
"p	c #0D0D0D",
"q	c #0A0A0A",
"r	c #040404",
"s	c #7C7C7C",
"................................",
"++++++++++++++++++++++++++++++++",
"@@@@@@@@@@@@@@@@@@@@@@@@@@@@@@@@",
"################################",
"#$%%%%%%%%%%%%%%%%%%%%%%%%%%%%%%",
"#%&**=*************************&",
"#%-;>;>>>>>>>>>>>>>>>>>>>>>>>>;-",
"#%,')!))))))))))))))))))))))))',",
"#%~{]^]]]]]]]]]]]]]]]]]]]]]]]]{~",
"#%/(_:________________________(/",
"#%<[}}}}}}}}}}}}}}}}}}}}}}}}}}[<",
"#%|1222222223333333333222222221|",
"4%567777777788888888887777777765",
"4%90aaaaaaaabbbbbbbbbbaaaaaaaa09",
"4%cdeeeeeeeeeeeeeeeeeeeeeeeeeedc",
"4%fghhhhhhhhhhhhhhhhhhhhhhhhhhgf",
"4%ijkkkkkkkkkkkkkkkkkkkkkkkkkkji",
"4%llmnmmmmmmmmmmmmmmmmmmmmmmmmll",
"4o%%%%%%%%%%%%%%%%%%%%%%%%%%%%%%",
"44444444444444444444444444444444",
"pqqqqqqqqqqqqqqqqqqqqqqqqqqqqqqq",
"rrrrrrrrrrrrrrrrrrrrrrrrrrrrrrrr",
"ssssssssssssssssssssssssssssssss",
"................................"};
