/* XPM */
static char * hide_inactive_xpm[] = {
"32 24 32 1",
" 	c None",
".	c #030303",
"+	c #B0B0B0",
"@	c #565656",
"#	c #959393",
"$	c #0E0E0E",
"%	c #000000",
"&	c #767676",
"*	c #717171",
"=	c #4C4C4C",
"-	c #6E6E6E",
";	c #494949",
">	c #6A6A6A",
",	c #474747",
"'	c #666666",
")	c #444444",
"!	c #626262",
"~	c #424242",
"{	c #606060",
"]	c #404040",
"^	c #F2F2F2",
"/	c #545454",
"(	c #191919",
"_	c #111111",
":	c #C3C3C3",
"<	c #181818",
"[	c #101010",
"}	c #C2C2C2",
"|	c #050505",
"1	c #0D0D0D",
"2	c #0A0A0A",
"3	c #040404",
"................................",
"++++++++++++++++++++++++++++++++",
"@@@@@@@@@@@@@@@@@@@@@@@@@@@@@@@@",
"################################",
"#$%%%%%%%%%%%%%%%%%%%%%%%%%%%%%%",
"#%&&&&&&&&&&&&&&&&&&&&&&&&&&&&&&",
"#%*============================*",
"#%-;;;;;;;;;;;;;;;;;;;;;;;;;;;;-",
"#%>,,,,,,,,,,,,,,,,,,,,,,,,,,,,>",
"#%'))))))))))))))))))))))))))))'",
"#%!~~~~~~~~~~~~~~~~~~~~~~~~~~~~!",
"#%{]]]]]]]]]^^^^^^^^^^]]]]]]]]]{",
"/%(_________::::::::::_________(",
"/%<[[[[[[[[[}}}}}}}}}}[[[[[[[[[<",
"/%<[[[[[[[[[[[[[[[[[[[[[[[[[[[[<",
"/%<[[[[[[[[[[[[[[[[[[[[[[[[[[[[<",
"/%<[[[[[[[[[[[[[[[[[[[[[[[[[[[[<",
"/%<<<<<<<<<<<<<<<<<<<<<<<<<<<<<<",
"/|%%%%%%%%%%%%%%%%%%%%%%%%%%%%%%",
"////////////////////////////////",
"12222222222222222222222222222222",
"33333333333333333333333333333333",
"~~~~~~~~~~~~~~~~~~~~~~~~~~~~~~~~",
"................................"};
