/* XPM */
static char * left_active_xpm[] = {
"6 10 4 1",
" 	c None",
".	c #030303",
"+	c #7C7C7C",
"@	c #040404",
".+@@+.",
".+@@+.",
".+@@+.",
".+@@+.",
".+@@+.",
".+@@+.",
".+@@+.",
".+@@+.",
".+@@+.",
".+@@+."};
