/* XPM */
static char * left_active_xpm[] = {
"5 5 2 1",
" 	c #000000",
".	c #010101",
"   . ",
"     ",
"     ",
"     ",
"     "};
