/* XPM */
static char * maximize_active_xpm[] = {
"26 28 162 2",
"  	c #5C5F72",
". 	c #5B5E71",
"+ 	c #5A5F72",
"@ 	c #5A6070",
"# 	c #5D6071",
"$ 	c #5C5F70",
"% 	c #5D6073",
"& 	c #6C6C6E",
"* 	c #6D6D6F",
"= 	c #6B6B6B",
"- 	c #6C6C6C",
"; 	c #6C6C6A",
"> 	c #6D6D6D",
", 	c #6D6B6C",
"' 	c #5F5D5E",
") 	c #636363",
"! 	c #616161",
"~ 	c #5E5E5E",
"{ 	c #646464",
"] 	c #5F5F5F",
"^ 	c #626262",
"/ 	c #656565",
"( 	c #606060",
"_ 	c #535152",
": 	c #505050",
"< 	c #4F4F4F",
"[ 	c #535353",
"} 	c #525252",
"| 	c #4E4E4E",
"1 	c #4D4D4D",
"2 	c #515151",
"3 	c #040404",
"4 	c #0A0A0A",
"5 	c #030303",
"6 	c #0B0B0B",
"7 	c #080808",
"8 	c #090B0A",
"9 	c #050706",
"0 	c #080A09",
"a 	c #060807",
"b 	c #060606",
"c 	c #050505",
"d 	c #0D0D0D",
"e 	c #070707",
"f 	c #202020",
"g 	c #777777",
"h 	c #7E7E7E",
"i 	c #797979",
"j 	c #777978",
"k 	c #797B7A",
"l 	c #787A79",
"m 	c #7B7D7C",
"n 	c #7E807F",
"o 	c #7A7C7B",
"p 	c #767877",
"q 	c #7D7D7D",
"r 	c #7A7A7A",
"s 	c #7B7B7B",
"t 	c #787878",
"u 	c #7C7C7C",
"v 	c #1D1D1D",
"w 	c #161616",
"x 	c #747474",
"y 	c #757575",
"z 	c #6F7170",
"A 	c #737574",
"B 	c #727473",
"C 	c #747675",
"D 	c #707271",
"E 	c #737373",
"F 	c #727272",
"G 	c #1A1A1A",
"H 	c #6B6D6C",
"I 	c #686A69",
"J 	c #666867",
"K 	c #676968",
"L 	c #696B6A",
"M 	c #6E706F",
"N 	c #6A6C6B",
"O 	c #1A1C1B",
"P 	c #1E1E1E",
"Q 	c #5F6160",
"R 	c #606261",
"S 	c #626463",
"T 	c #BFBFBF",
"U 	c #E1E1E1",
"V 	c #EAEAEA",
"W 	c #E6E6E6",
"X 	c #E4E4E4",
"Y 	c #E8E8E8",
"Z 	c #EAECEB",
"` 	c #DDDFDE",
" .	c #ACAEAD",
"..	c #5E605F",
"+.	c #616362",
"@.	c #1B1D1C",
"#.	c #535554",
"$.	c #525453",
"%.	c #545655",
"&.	c #555756",
"*.	c #EBEBEB",
"=.	c #E3E3E3",
"-.	c #E2E4E3",
";.	c #EBEDEC",
">.	c #C6C8C7",
",.	c #191B1A",
"'.	c #1C1C1C",
").	c #464646",
"!.	c #4A4A4A",
"~.	c #494949",
"{.	c #4B4B4B",
"].	c #E7E7E7",
"^.	c #E5E5E5",
"/.	c #CBCBCB",
"(.	c #454545",
"_.	c #484848",
":.	c #191919",
"<.	c #171717",
"[.	c #000000",
"}.	c #010101",
"|.	c #E2E2E2",
"1.	c #B5B5B5",
"2.	c #020202",
"3.	c #B7B7B7",
"4.	c #181818",
"5.	c #B8B8B8",
"6.	c #1B1B1B",
"7.	c #B3B3B3",
"8.	c #AEAEAE",
"9.	c #B2B2B2",
"0.	c #B1B1B1",
"a.	c #AFAFAF",
"b.	c #545454",
"c.	c #575757",
"d.	c #585858",
"e.	c #5A5A5A",
"f.	c #565656",
"g.	c #595959",
"h.	c #929292",
"i.	c #909090",
"j.	c #919191",
"k.	c #939393",
"l.	c #262626",
"m.	c #272727",
"n.	c #282828",
"o.	c #292929",
"p.	c #2A2A2A",
"q.	c #212121",
"r.	c #242424",
"s.	c #222222",
"t.	c #232323",
"u.	c #090909",
"v.	c #262827",
"w.	c #28272C",
"x.	c #27262B",
"y.	c #26252A",
"z.	c #262628",
"A.	c #272729",
"B.	c #363533",
"C.	c #373634",
"D.	c #383735",
"E.	c #363634",
"    .         + + + + + + @ @ # # $ # % % %   % % % ",
"& & & & & * * & & & = = - - - ; ; - - > > - - , , , ",
"' ) ! ~ { ] ^ ] / ~ ) ] ( ) ! ( ) ! ^ ] ^ ^ ! ] { ~ ",
"_ : < [ < < : } | < } < } : | } < : 1 2 2 : } } | } ",
"3 4 5 6 7 8 9 0 a 8 a 9 a 0 8 b c d b 4 e e 7 b e 7 ",
"f g h i j j k l m l l n l o p q r s t r s u i s q v ",
"w x y z j A A A A B C C D C p E y F g E F x F y y w ",
"G - H I I J K L H H L K H I I K M L J N I L H L K O ",
"P Q R S R R S ) T U V W W X Y Z `  .R R Q ..Q +.R @.",
"G #.$.%.&.$.%.[ W *.=.W X Y X -.;.>.#.&.&.#.%.#.%.,.",
"'.).!.~.{.~.~.).Y ].^.^.].W ^.W ]./.(.!.).{.).!._.:.",
"<.c [.}.[.[.[.5 |.[.c [.[.5 [.[.[.1.5 [.[.[.}.[.5 <.",
"P [.[.b [.2.[.[.V [.[.[.[.2.[.[.2.3.[.[.c [.[.}.[.P ",
":.}.[.[.[.[.2.[.X [.[.2.2.[.5 [.[.3.[.[.[.[.}.[.2.4.",
"<.2.2.[.5 [.[.2.^.}.[.}.}.[.[.[.5 5.[.3 [.[.[.[.}.4.",
"'.[.[.[.[.}.[.}.Y W ].V |.V W Y |.3.5 [.[.[.}.[.[.6.",
"P [.[.c [.[.[.[.E 7.8.9.0.0.a.0.7.b.[.[.[.2.[.}.[.'.",
":.}.[.[.[.}.[.2.[.[.2.[.}.[.}.[.}.}.[.2.}.[.2.[.[.G ",
"w 3 [.[.[.[.[.[.[.[.[.[.[.[.[.[.[.[.[.[.[.[.[.[.2.4.",
"'.4.:.'.G 6.6.G G G G G G G G G G G G G G G G 6.<.P ",
"c.d.e.d.f.c.c.c.c.c.c.c.c.c.c.c.c.c.c.c.c.c.c.g.c.f.",
"h.h.h.i.i.h.j.h.h.h.h.h.h.h.h.h.h.h.h.h.h.h.h.j.k.k.",
"l.m.n.m.o.p.n.m.m.m.m.m.m.m.m.m.m.m.m.m.m.m.m.n.n.m.",
"q.r.r.q.s.s.s.t.t.t.t.t.t.t.t.t.t.t.t.t.t.t.t.t.s.s.",
"6.P '.6.'.'.P 6.6.6.6.6.6.6.6.6.6.6.6.6.6.6.6.6.P v ",
"e u.e 7 4 e u.u.u.u.u.u.u.u.u.u.u.u.u.u.u.u.u.e 6 b ",
"m.n.n.n.m.m.m.m.m.m.m.m.m.m.v.w.x.x.y.y.x.x.x.z.z.A.",
"B.B.C.C.C.C.B.D.D.D.E.E.E.E.E.E.E.E.E.E.E.E.E.B.C.C."};
