/* XPM */
static char * maximize-prelight_xpm[] = {
"26 28 164 2",
"  	c None",
". 	c #5C5F72",
"+ 	c #5B5E71",
"@ 	c #5A5F72",
"# 	c #5A6070",
"$ 	c #5D6071",
"% 	c #5C5F70",
"& 	c #5D6073",
"* 	c #6C6C6E",
"= 	c #6D6D6F",
"- 	c #6B6B6B",
"; 	c #6C6C6C",
"> 	c #6C6C6A",
", 	c #6D6D6D",
"' 	c #6D6B6C",
") 	c #5F5D5E",
"! 	c #636363",
"~ 	c #616161",
"{ 	c #5E5E5E",
"] 	c #646464",
"^ 	c #5F5F5F",
"/ 	c #626262",
"( 	c #656565",
"_ 	c #606060",
": 	c #535152",
"< 	c #505050",
"[ 	c #4F4F4F",
"} 	c #535353",
"| 	c #525252",
"1 	c #4E4E4E",
"2 	c #4D4D4D",
"3 	c #515151",
"4 	c #040404",
"5 	c #0A0A0A",
"6 	c #030303",
"7 	c #0B0B0B",
"8 	c #080808",
"9 	c #090B0A",
"0 	c #050706",
"a 	c #080A09",
"b 	c #060807",
"c 	c #060606",
"d 	c #050505",
"e 	c #0D0D0D",
"f 	c #070707",
"g 	c #202020",
"h 	c #585100",
"i 	c #615A00",
"j 	c #5B5300",
"k 	c #585300",
"l 	c #5B5600",
"m 	c #595400",
"n 	c #5D5800",
"o 	c #615C00",
"p 	c #5C5700",
"q 	c #575200",
"r 	c #5F5800",
"s 	c #5C5400",
"t 	c #5D5600",
"u 	c #595200",
"v 	c #5E5700",
"w 	c #1D1D1D",
"x 	c #161616",
"y 	c #544D00",
"z 	c #564E00",
"A 	c #4E4900",
"B 	c #534E00",
"C 	c #524D00",
"D 	c #544F00",
"E 	c #4F4A00",
"F 	c #534B00",
"G 	c #524A00",
"H 	c #1A1A1A",
"I 	c #4B4200",
"J 	c #494400",
"K 	c #464000",
"L 	c #433D00",
"M 	c #443F00",
"N 	c #474100",
"O 	c #4D4800",
"P 	c #484200",
"Q 	c #1A1C1B",
"R 	c #1E1E1E",
"S 	c #3B3400",
"T 	c #3C3600",
"U 	c #3E3800",
"V 	c #3F3700",
"W 	c #B1AD00",
"X 	c #DBD917",
"Y 	c #E6E45D",
"Z 	c #E1DF3E",
"` 	c #DEDD2E",
" .	c #E3E24D",
"..	c #E6E764",
"+.	c #D6D600",
"@.	c #999700",
"#.	c #393300",
"$.	c #3D3700",
"%.	c #1B1D1C",
"&.	c #2C2500",
"*.	c #2B2400",
"=.	c #2D2600",
"-.	c #2E2700",
";.	c #2C2200",
">.	c #E7E664",
",.	c #DDDB26",
"'.	c #DCDD26",
").	c #E7E86C",
"!.	c #B9B900",
"~.	c #191B1A",
"{.	c #1C1C1C",
"].	c #1C1200",
"^.	c #211700",
"/.	c #1F1500",
"(.	c #221800",
"_.	c #E2E145",
":.	c #DFDE36",
"<.	c #BFBD00",
"[.	c #1B1000",
"}.	c #1E1400",
"|.	c #191919",
"1.	c #171717",
"2.	c #000000",
"3.	c #DCDA1F",
"4.	c #A4A000",
"5.	c #A7A300",
"6.	c #181818",
"7.	c #A8A400",
"8.	c #1B1B1B",
"9.	c #A29E00",
"0.	c #9C9700",
"a.	c #A19C00",
"b.	c #9F9B00",
"c.	c #9D9900",
"d.	c #2D2400",
"e.	c #575757",
"f.	c #585858",
"g.	c #5A5A5A",
"h.	c #565656",
"i.	c #595959",
"j.	c #929292",
"k.	c #909090",
"l.	c #919191",
"m.	c #939393",
"n.	c #262626",
"o.	c #272727",
"p.	c #282828",
"q.	c #292929",
"r.	c #2A2A2A",
"s.	c #212121",
"t.	c #242424",
"u.	c #222222",
"v.	c #232323",
"w.	c #090909",
"x.	c #262827",
"y.	c #28272C",
"z.	c #27262B",
"A.	c #26252A",
"B.	c #262628",
"C.	c #272729",
"D.	c #363533",
"E.	c #373634",
"F.	c #383735",
"G.	c #363634",
". . + . . . . @ @ @ @ @ @ # # $ $ % $ & & & . & & & ",
"* * * * * = = * * * - - ; ; ; > > ; ; , , ; ; ' ' ' ",
") ! ~ { ] ^ / ^ ( { ! ^ _ ! ~ _ ! ~ / ^ / / ~ ^ ] { ",
": < [ } [ [ < | 1 [ | [ | < 1 | [ < 2 3 3 < | | 1 | ",
"4 5 6 7 8 9 0 a b 9 b 0 b a 9 c d e c 5 f f 8 c f 8 ",
"g h i j k k l m n m m o m p q r s t u s t v j t r w ",
"x y z A k B B B B C D D E D q F z G h F G y G z z x ",
"H I J K K L M N J J N M J K K M O N L P K N J N M Q ",
"R S T U T T U V W X Y Z Z `  ...+.@.T T S #.S $.T %.",
"H &.*.=.-.*.=.;.Z >.,.Z `  .` '.).!.&.-.-.&.=.&.=.~.",
"{.].^./.(././.]. ._.:.:._.Z :.Z _.<.[.^.].(.].^.}.|.",
"1.2.2.2.2.2.2.2.3.2.2.2.2.2.2.2.2.4.2.2.2.2.2.2.2.1.",
"R 2.2.2.2.2.2.2.Y 2.2.2.2.2.2.2.2.5.2.2.2.2.2.2.2.R ",
"|.2.2.2.2.2.2.2.` 2.2.2.2.2.2.2.2.5.2.2.2.2.2.2.2.6.",
"1.2.2.2.2.2.2.2.:.2.2.2.2.2.2.2.2.7.2.2.2.2.2.2.2.6.",
"{.2.2.2.2.2.2.2. .Z _.Y 3.Y Z  .3.5.2.2.2.2.2.2.2.8.",
"R 2.2.2.2.2.2.2.F 9.0.a.b.b.c.b.9.d.2.2.2.2.2.2.2.{.",
"|.2.2.2.2.2.2.2.2.2.2.2.2.2.2.2.2.2.2.2.2.2.2.2.2.H ",
"x 2.2.2.2.2.2.2.2.2.2.2.2.2.2.2.2.2.2.2.2.2.2.2.2.6.",
"{.2.2.2.2.2.2.2.2.2.2.2.2.2.2.2.2.2.2.2.2.2.2.2.2.R ",
"e.f.g.f.h.e.e.e.e.e.e.e.e.e.e.e.e.e.e.e.e.e.e.i.e.h.",
"j.j.j.k.k.j.l.j.j.j.j.j.j.j.j.j.j.j.j.j.j.j.j.l.m.m.",
"n.o.p.o.q.r.p.o.o.o.o.o.o.o.o.o.o.o.o.o.o.o.o.p.p.o.",
"s.t.t.s.u.u.u.v.v.v.v.v.v.v.v.v.v.v.v.v.v.v.v.v.u.u.",
"8.R {.8.{.{.R 8.8.8.8.8.8.8.8.8.8.8.8.8.8.8.8.8.R w ",
"f w.f 8 5 f w.w.w.w.w.w.w.w.w.w.w.w.w.w.w.w.w.f 7 c ",
"o.p.p.p.o.o.o.o.o.o.o.o.o.o.x.y.z.z.A.A.z.z.z.B.B.C.",
"D.D.E.E.E.E.D.F.F.F.G.G.G.G.G.G.G.G.G.G.G.G.G.D.E.E."};
