/* XPM */
static char * maximize_active_xpm[] = {
"34 24 41 1",
" 	c None",
".	c #030303",
"+	c #B0B0B0",
"@	c #565656",
"#	c #959393",
"$	c #0E0E0E",
"%	c #000000",
"&	c #1FA8E2",
"*	c #1EA6E0",
"=	c #1968A5",
"-	c #1CA5DF",
";	c #1866A3",
">	c #1AA2DE",
",	c #1664A0",
"'	c #DDF5FF",
")	c #199FDC",
"!	c #16629F",
"~	c #D9F3FF",
"{	c #1AA1DD",
"]	c #1664A1",
"^	c #E6FCFF",
"/	c #1CA7E2",
"(	c #1869A9",
"_	c #FFFFFF",
":	c #0446C2",
"<	c #032C6F",
"[	c #D6FFFF",
"}	c #044FC9",
"|	c #04317A",
"1	c #055DD3",
"2	c #053A8A",
"3	c #0770E1",
"4	c #0645A1",
"5	c #0B8FF7",
"6	c #0858C6",
"7	c #11B8FF",
"8	c #01050C",
"9	c #545454",
"0	c #0A0A0A",
"a	c #040404",
"b	c #7C7C7C",
"..................................",
"++++++++++++++++++++++++++++++++++",
"@@@@@@@@@@@@@@@@@@@@@@@@@@@@@@@@@@",
"##################################",
"$%%%%%%%%%%%%%%%%%%%%%%%%%%%%%%%%%",
"%&&&&&&&&&&&&&&&&&&&&&&&&&&&&&&&&&",
"%*===============================*",
"%-;;;;;;;;;;;;;;;;;;;;;;;;;;;;;;;-",
"%>,,,,,,,,,,'''''''''',,,,,,,,,,,>",
"%)!!!!!!!!!!~~~~~~~~~~!!!!!!!!!!!)",
"%{]]]]]]]]]]^^]]]]]]^^]]]]]]]]]]]{",
"%/((((((((((__((((((__(((((((((((/",
"%:<<<<<<<<<<[[<<<<<<[[<<<<<<<<<<<:",
"%}||||||||||__||||||__|||||||||||}",
"%12222222222__________222222222221",
"%34444444444__________444444444443",
"%566666666666666666666666666666665",
"%777777777777777777777777777777777",
"8%%%%%%%%%%%%%%%%%%%%%%%%%%%%%%%%%",
"9999999999999999999999999999999999",
"0000000000000000000000000000000000",
"aaaaaaaaaaaaaaaaaaaaaaaaaaaaaaaaaa",
"bbbbbbbbbbbbbbbbbbbbbbbbbbbbbbbbbb",
".................................."};
