/* XPM */
static char * maximize_pressed_xpm[] = {
"34 24 57 1",
" 	c None",
".	c #030303",
"+	c #B0B0B0",
"@	c #565656",
"#	c #959393",
"$	c #02060A",
"%	c #000000",
"&	c #04358B",
"*	c #022D7C",
"=	c #043F9D",
"-	c #021E49",
";	c #021E4C",
">	c #075BC1",
",	c #053065",
"'	c #063369",
")	c #0E79CD",
"!	c #0A437E",
"~	c #0B4783",
"{	c #6EBCDA",
"]	c #1288D4",
"^	c #0D4D89",
"/	c #0E528E",
"(	c #AEE0F4",
"_	c #1493D9",
":	c #0F5391",
"<	c #115996",
"[	c #DEFAFF",
"}	c #169DDC",
"|	c #105898",
"1	c #135F9E",
"2	c #FFFFFF",
"3	c #022185",
"4	c #011343",
"5	c #011347",
"6	c #2889C2",
"7	c #022491",
"8	c #011549",
"9	c #01154E",
"0	c #329CD6",
"a	c #022BA5",
"b	c #011A53",
"c	c #011A59",
"d	c #41B7F5",
"e	c #0235BE",
"f	c #021E60",
"g	c #021E66",
"h	c #5CE0FF",
"i	c #0441CC",
"j	c #032774",
"k	c #03277B",
"l	c #0871F8",
"m	c #087BFF",
"n	c #000204",
"o	c #545454",
"p	c #0A0A0A",
"q	c #040404",
"r	c #7C7C7C",
"..................................",
"++++++++++++++++++++++++++++++++++",
"@@@@@@@@@@@@@@@@@@@@@@@@@@@@@@@@@@",
"##################################",
"$%%%%%%%%%%%%%%%%%%%%%%%%%%%%%%%%%",
"%&*******************************&",
"%=-;;;;;;;;;;;;;;;;;;;;;;;;;;;;;-=",
"%>,''''''''''''''''''''''''''''',>",
"%)!~~~~~~~~~{{{{{{{{{{~~~~~~~~~~!)",
"%]^/////////((((((((((//////////^]",
"%_:<<<<<<<<<[[<<<<<<[[<<<<<<<<<<:_",
"%}|11111111122111111221111111111|}",
"%345555555556655555566555555555543",
"%789999999990099999900999999999987",
"%abcccccccccddddddddddccccccccccba",
"%efggggggggghhhhhhhhhhggggggggggfe",
"%ijkkkkkkkkkkkkkkkkkkkkkkkkkkkkkji",
"%llmmmmmmmmmmmmmmmmmmmmmmmmmmmmmll",
"n%%%%%%%%%%%%%%%%%%%%%%%%%%%%%%%%%",
"oooooooooooooooooooooooooooooooooo",
"pppppppppppppppppppppppppppppppppp",
"qqqqqqqqqqqqqqqqqqqqqqqqqqqqqqqqqq",
"rrrrrrrrrrrrrrrrrrrrrrrrrrrrrrrrrr",
".................................."};
