/* XPM */
static char * title_4_active_xpm[] = {
"4 26 3 1",
" 	c None",
".	c #000000",
"+	c #010101",
"....",
"....",
"....",
"....",
"....",
"....",
"....",
"....",
"....",
"....",
"++++",
"++++",
"++++",
"....",
"....",
"....",
"....",
"....",
"....",
"....",
"....",
"....",
"....",
"....",
"....",
"...."};
