/* XPM */
static char * title_1_inactive_xpm[] = {
"38 24 15 1",
" 	c None",
".	c #030303",
"+	c #B0B0B0",
"@	c #565656",
"#	c #545454",
"$	c #515151",
"%	c #4F4F4F",
"&	c #4C4C4C",
"*	c #494949",
"=	c #474747",
"-	c #444444",
";	c #424242",
">	c #404040",
",	c #050505",
"'	c #040404",
"......................................",
"++++++++++++++++++++++++++++++++++++++",
"@@@@@@@@@@@@@@@@@@@@@@@@@@@@@@@@@@@@@@",
"######################################",
"$$$$$$$$$$$$$$$$$$$$$$$$$$$$$$$$$$$$$$",
"%%%%%%%%%%%%%%%%%%%%%%%%%%%%%%%%%%%%%%",
"&&&&&&&&&&&&&&&&&&&&&&&&&&&&&&&&&&&&&&",
"**************************************",
"======================================",
"--------------------------------------",
";;;;;;;;;;;;;;;;;;;;;;;;;;;;;;;;;;;;;;",
">>>>>>>>>>>>>>>>>>>>>>>>>>>>>>>>>>>>>>",
",,,,,,,,,,,,,,,,,,,,,,,,,,,,,,,,,,,,,,",
"''''''''''''''''''''''''''''''''''''''",
"''''''''''''''''''''''''''''''''''''''",
"''''''''''''''''''''''''''''''''''''''",
"''''''''''''''''''''''''''''''''''''''",
"''''''''''''''''''''''''''''''''''''''",
"''''''''''''''''''''''''''''''''''''''",
"''''''''''''''''''''''''''''''''''''''",
"''''''''''''''''''''''''''''''''''''''",
"''''''''''''''''''''''''''''''''''''''",
";;;;;;;;;;;;;;;;;;;;;;;;;;;;;;;;;;;;;;",
"......................................"};
