/* XPM */
static char * title_3_active_xpm[] = {
"4 26 3 1",
" 	c None",
".	c #000000",
"+	c #010000",
"....",
"....",
"....",
"....",
"....",
"....",
"....",
"....",
"....",
"....",
"....",
"....",
"....",
"....",
"....",
"....",
"....",
"....",
"....",
"....",
"....",
"....",
"....",
"....",
"....",
"++++"};
