/* XPM */
static char * title_2_active_xpm[] = {
"4 26 3 1",
" 	c None",
".	c #010101",
"+	c #000000",
"....",
"++++",
"++++",
"++++",
"++++",
"++++",
"++++",
"++++",
"++++",
"++++",
"++++",
"++++",
"++++",
"++++",
"++++",
"++++",
"++++",
"++++",
"++++",
"++++",
"++++",
"++++",
"++++",
"++++",
"++++",
"++++"};
