/* XPM */
static char * top_left_active_xpm[] = {
"10 24 27 1",
" 	c None",
".	c #030303",
"+	c #B0B0B0",
"@	c #ACACAC",
"#	c #565656",
"$	c #A8A8A8",
"%	c #545454",
"&	c #A2A2A2",
"*	c #515151",
"=	c #9D9D9D",
"-	c #4F4F4F",
";	c #979797",
">	c #4C4C4C",
",	c #929292",
"'	c #494949",
")	c #8D8D8D",
"!	c #474747",
"~	c #888888",
"{	c #444444",
"]	c #838383",
"^	c #424242",
"/	c #808080",
"(	c #404040",
"_	c #7C7C7C",
":	c #050505",
"<	c #040404",
"[	c #676767",
"..........",
".+++++++++",
".@########",
".$%%%%%%%%",
".&********",
".=--------",
".;>>>>>>>>",
".,''''''''",
".)!!!!!!!!",
".~{{{{{{{{",
".]^^^^^^^^",
"./((((((((",
"._::::::::",
"._<<<<<<<<",
"._<<<<<<<<",
"._<<<<<<<<",
"._<<<<<<<<",
"._<<<<<<<<",
"._<<<<<<<<",
"._<<<<<<<<",
"._<<<<<<<<",
"._<<<<<<<<",
"._<<[_____",
"._<<_....."};
