/* XPM */
static char * top_right_inactive_xpm[] = {
"10 24 27 1",
" 	c #030303",
".	c #B0B0B0",
"+	c #565656",
"@	c #ACACAC",
"#	c #545454",
"$	c #A8A8A8",
"%	c #515151",
"&	c #A2A2A2",
"*	c #4F4F4F",
"=	c #9D9D9D",
"-	c #4C4C4C",
";	c #979797",
">	c #494949",
",	c #929292",
"'	c #474747",
")	c #8D8D8D",
"!	c #444444",
"~	c #888888",
"{	c #424242",
"]	c #838383",
"^	c #404040",
"/	c #808080",
"(	c #050505",
"_	c #454545",
":	c #040404",
"<	c #434343",
"[	c #2E2E2E",
"          ",
"......... ",
"++++++++@ ",
"########$ ",
"%%%%%%%%& ",
"********= ",
"--------; ",
">>>>>>>>, ",
"'''''''') ",
"!!!!!!!!~ ",
"{{{{{{{{] ",
"^^^^^^^^/ ",
"((((((((_ ",
"::::::::< ",
"::::::::{ ",
"::::::::{ ",
"::::::::{ ",
"::::::::{ ",
"::::::::{ ",
"::::::::{ ",
"::::::::{ ",
"::::::::{ ",
"{{{{{[::{ ",
"     {::{ "};
